<svg xmlns="http://www.w3.org/2000/svg" data-name="Layer 1" viewBox="0 0 100 125" x="0px" y="0px"><title>All</title><path d="M77.64,100a8.59,8.59,0,0,1-4.33-2.36,7.41,7.41,0,0,1-1.86-5.11q0-6.82,0-13.65a6.87,6.87,0,0,1,4-6.65A9.07,9.07,0,0,1,79,71.47c4.41-.09,8.83,0,13.25,0,3.95,0,6.84,2.21,7.61,6a0.9,0.9,0,0,0,.11.21V93.77c-0.05.18-.11,0.35-0.16,0.53a6.59,6.59,0,0,1-2.76,4.23A26.65,26.65,0,0,1,93.77,100H77.64Z"/><path d="M22.36,0a20.64,20.64,0,0,1,3.17,1.39,6.76,6.76,0,0,1,3,6q0.06,6.9,0,13.81a6.91,6.91,0,0,1-4.12,6.65,8.33,8.33,0,0,1-3.32.69c-4.55.07-9.1,0.05-13.65,0A7.15,7.15,0,0,1,.14,22.74,3.56,3.56,0,0,0,0,22.36Q0,14.3,0,6.23c0-.15.11-0.3,0.15-0.45A6.58,6.58,0,0,1,2.92,1.47,26,26,0,0,1,6.23,0H22.36Z"/><path d="M100,22.36a21.05,21.05,0,0,1-1.4,3.18,6.75,6.75,0,0,1-6,3q-6.9.06-13.81,0a6.8,6.8,0,0,1-6.52-3.92,8.75,8.75,0,0,1-.81-3.52c-0.09-4.55-.06-9.1,0-13.65A7.14,7.14,0,0,1,77.35.12,1.86,1.86,0,0,0,77.64,0H93.77a3.1,3.1,0,0,0,.37.13,6.5,6.5,0,0,1,4.34,2.72A26.57,26.57,0,0,1,100,6.23V22.36Z"/><path d="M0,77.64a19.41,19.41,0,0,1,1.34-3.12A6.83,6.83,0,0,1,7.4,71.45c4.6,0,9.2,0,13.81,0a6.8,6.8,0,0,1,6.52,3.92,8.75,8.75,0,0,1,.81,3.52c0.09,4.55.06,9.1,0,13.65a7.14,7.14,0,0,1-5.91,7.35,1.72,1.72,0,0,0-.29.12H6.23a3.07,3.07,0,0,0-.37-0.13,6.57,6.57,0,0,1-4.39-2.79A24.74,24.74,0,0,1,0,93.77V77.64Z"/><path d="M0,41.85a21.71,21.71,0,0,1,1.53-3.28,6.21,6.21,0,0,1,5.29-2.79c4.9,0,9.79,0,14.69,0a7.08,7.08,0,0,1,7,7.25c0,4.66.06,9.32,0,14a7,7,0,0,1-7,7.23c-4.82.11-9.64,0.1-14.45,0-3.56-.07-6-2.16-6.91-5.64,0-.15-0.1-0.29-0.16-0.44Q0,50,0,41.85Z"/><path d="M100,58.15a20.51,20.51,0,0,1-1.48,3.22,6.28,6.28,0,0,1-5.34,2.84c-4.92,0-9.85.12-14.77,0a6.94,6.94,0,0,1-7-7.22c-0.06-4.66,0-9.32,0-14a7.08,7.08,0,0,1,7-7.25c4.82,0,9.64-.08,14.45,0a7,7,0,0,1,6.92,5.72,2.65,2.65,0,0,0,.14.36V58.15Z"/><path d="M41.85,100a22.74,22.74,0,0,1-3.4-1.63,6,6,0,0,1-2.64-5C35.72,90,35.75,86.5,35.74,83c0-1.52,0-3,0-4.55a7.09,7.09,0,0,1,7.25-7q7,0,14,0a7.07,7.07,0,0,1,7.24,7c0,4.87.09,9.74,0,14.61-0.08,3.55-2.24,6-5.71,6.84a2.68,2.68,0,0,0-.36.14H41.85Z"/><path d="M58,0a9.21,9.21,0,0,1,3.61,1.6,6.49,6.49,0,0,1,2.59,4.92c0.09,4,.06,7.93.07,11.89,0,1,0,2,0,3a7.12,7.12,0,0,1-7.35,7.12c-4.6,0-9.21,0-13.81,0-4.19,0-7.19-2.84-7.29-7-0.13-4.87-.11-9.74,0-14.61C35.87,3.43,38,1,41.5.14A2.7,2.7,0,0,0,41.85,0H58Z"/><path d="M64.21,50c0,2.55.09,5.11,0,7.66a6.75,6.75,0,0,1-6.51,6.53q-7.7.18-15.4,0a6.7,6.7,0,0,1-6.47-6.48q-0.17-7.7,0-15.4a6.69,6.69,0,0,1,6.46-6.48q7.74-.18,15.48,0a6.75,6.75,0,0,1,6.43,6.43c0.11,2.58,0,5.16,0,7.74h0Z"/><text x="0" y="115" fill="#000000" font-size="5px" font-weight="bold" font-family="'Helvetica Neue', Helvetica, Arial-Unicode, Arial, Sans-serif">Created by i cons</text><text x="0" y="120" fill="#000000" font-size="5px" font-weight="bold" font-family="'Helvetica Neue', Helvetica, Arial-Unicode, Arial, Sans-serif">from the Noun Project</text></svg>