<svg xmlns="http://www.w3.org/2000/svg" version="1.1" viewBox="-5.0 -10.0 110.0 135.0">
 <path d="m93.75 37.504h-16.594l-11.719-19.844c-0.60547-1.625-2.4102-2.4492-4.0312-1.8438-1.6211 0.60156-2.4492 2.4062-1.8438 4.0312l10.938 17.656h-41l10.938-17.656c0.60547-1.625-0.22266-3.4297-1.8438-4.0312-1.6211-0.60547-3.4258 0.21875-4.0312 1.8438l-11.719 19.844h-16.594c-1.7266 0-3.125 1.3984-3.125 3.125 0 1.7266 1.3984 3.125 3.125 3.125h3.9062l7.4062 33.844c1.1758 4.0078 4.8516 6.7695 9.0312 6.7812h46.812c4.1875-0.015625 7.8672-2.7891 9.0312-6.8125l7.4062-33.812h3.9062c1.7266 0 3.125-1.3984 3.125-3.125 0-1.7266-1.3984-3.125-3.125-3.125zm-56.25 31.25c0 1.7266-1.3984 3.125-3.125 3.125s-3.125-1.3984-3.125-3.125v-12.5c0-1.7266 1.3984-3.125 3.125-3.125s3.125 1.3984 3.125 3.125zm15.625 0c0 1.7266-1.3984 3.125-3.125 3.125s-3.125-1.3984-3.125-3.125v-12.5c0-1.7266 1.3984-3.125 3.125-3.125s3.125 1.3984 3.125 3.125zm15.625 0c0 1.7266-1.3984 3.125-3.125 3.125s-3.125-1.3984-3.125-3.125v-12.5c0-1.7266 1.3984-3.125 3.125-3.125s3.125 1.3984 3.125 3.125z"/>
<text x="0.0" y="117.5" font-size="5.0" font-weight="bold" font-family="Arbeit Regular, Helvetica, Arial-Unicode, Arial, Sans-serif" fill="#000000">Created by Ricons</text><text x="0.0" y="122.5" font-size="5.0" font-weight="bold" font-family="Arbeit Regular, Helvetica, Arial-Unicode, Arial, Sans-serif" fill="#000000">from Noun Project</text></svg>