<svg xmlns="http://www.w3.org/2000/svg" version="1.1" viewBox="-5.0 -10.0 110.0 135.0">
 <g>
  <path d="m67.188 7.8125h-34.375c-5.1719 0-9.375 4.2031-9.375 9.375v4.6875h53.125v-4.6875c0-5.1719-4.2031-9.375-9.375-9.375z"/>
  <path d="m26.562 59.375v26.562c0 3.4531 2.7969 6.25 6.25 6.25h34.375c3.4531 0 6.25-2.7969 6.25-6.25v-26.562zm37.5 25h-28.125c-1.7266 0-3.125-1.3984-3.125-3.125s1.3984-3.125 3.125-3.125h28.125c1.7266 0 3.125 1.3984 3.125 3.125s-1.3984 3.125-3.125 3.125zm0-12.5h-28.125c-1.7266 0-3.125-1.3984-3.125-3.125s1.3984-3.125 3.125-3.125h28.125c1.7266 0 3.125 1.3984 3.125 3.125s-1.3984 3.125-3.125 3.125z"/>
  <path d="m84.375 26.562h-68.75c-5.1719 0-9.375 4.2031-9.375 9.375v31.25c0 5.1719 4.2031 9.375 9.375 9.375h4.6875v-17.188c-1.7266 0-3.125-1.3984-3.125-3.125s1.3984-3.125 3.125-3.125h59.375c1.7266 0 3.125 1.3984 3.125 3.125s-1.3984 3.125-3.125 3.125v17.188h4.6875c5.1719 0 9.375-4.2031 9.375-9.375v-31.25c0-5.1719-4.2031-9.375-9.375-9.375zm-4.6875 18.75h-7.8125c-1.7266 0-3.125-1.3984-3.125-3.125s1.3984-3.125 3.125-3.125h7.8125c1.7266 0 3.125 1.3984 3.125 3.125s-1.3984 3.125-3.125 3.125z"/>
 </g>
<text x="0.0" y="117.5" font-size="5.0" font-weight="bold" font-family="Arbeit Regular, Helvetica, Arial-Unicode, Arial, Sans-serif" fill="#000000">Created by Glyphy</text><text x="0.0" y="122.5" font-size="5.0" font-weight="bold" font-family="Arbeit Regular, Helvetica, Arial-Unicode, Arial, Sans-serif" fill="#000000">from Noun Project</text></svg>