<svg xmlns:rdf="http://www.w3.org/1999/02/22-rdf-syntax-ns#" xmlns="http://www.w3.org/2000/svg" xmlns:cc="http://creativecommons.org/ns#" xmlns:dc="http://purl.org/dc/elements/1.1/" version="1.1" x="0px" y="0px" viewBox="0 0 100 125"><g transform="translate(0,-952.36218)"><path style="baseline-shift:baseline;block-progression:tb;color:#000000;direction:ltr;text-indent:0;enable-background:accumulate;text-transform:none;" fill="#000" d="m50,962.71c-15.413,0-27.844,11.818-27.844,26.344,0,4.8357,1.3728,9.3528,3.7812,13.25a0.75008,0.75008,0,0,1,0.03125,0.062,0.75008,0.75008,0,0,1,0.03125,0.062l0.03125,0.062a0.75008,0.75008,0,0,1,0,0.031l24.125,39.5,23.906-39.688a0.75008,0.75008,0,0,1,0.03125,-0.062,0.75008,0.75008,0,0,1,0.03125,-0.094h0.03125c0.005-0.01-0.005-0.021,0-0.031,0.0121-0.019,0.01921-0.043,0.03125-0.062,2.3272-3.8484,3.6562-8.2843,3.6562-13.031,0-14.477-12.348-26.263-27.688-26.344-0.05292-0.00028-0.10326,0-0.15625,0zm0,8.5c9.8976,0,17.906,7.5992,17.906,16.969,0,9.3695-8.0087,16.969-17.906,16.969-9.8976,0-17.906-7.5992-17.906-16.969,0-9.3695,8.0087-16.969,17.906-16.969z"/></g><text x="0" y="115" fill="#000000" font-size="5px" font-weight="bold" font-family="'Helvetica Neue', Helvetica, Arial-Unicode, Arial, Sans-serif">Created by majidi gtr</text><text x="0" y="120" fill="#000000" font-size="5px" font-weight="bold" font-family="'Helvetica Neue', Helvetica, Arial-Unicode, Arial, Sans-serif">from the Noun Project</text></svg>