<svg xmlns="http://www.w3.org/2000/svg" xmlns:xlink="http://www.w3.org/1999/xlink" version="1.1" x="0px" y="0px" viewBox="0 0 100 125" enable-background="new 0 0 100 100" xml:space="preserve"><path d="M6.233,57.909H61.03c1.557,0,2.818-1.262,2.818-2.818V26.228c0-3.416-2.767-6.185-6.183-6.185H11.183  C7.769,20.043,5,22.813,5,26.228v30.448C5,57.357,5.553,57.909,6.233,57.909z"/><path d="M93.617,64.083l-0.009-11.322c0.002-1.138-0.545-2.802-1.221-3.717l-11.62-15.711c-0.68-0.916-2.149-1.657-3.288-1.657  H67.195c-0.681,0-1.232,0.552-1.232,1.233v24.296c0,1.557-1.263,2.818-2.819,2.818H6.233C5.553,60.022,5,60.574,5,61.256v7.533  c0,2.276,1.846,4.122,4.122,4.122h4.645c0-5.06,4.104-9.16,9.162-9.16c5.058,0,9.158,4.101,9.158,9.16h37.841  c0-5.058,4.101-9.16,9.16-9.16c5.057,0,9.159,4.103,9.159,9.16h2.618c2.29,0,4.136-1.846,4.136-4.122v-2.771  C95,65.12,94.421,64.363,93.617,64.083z M85.119,50.196c0,0.682-0.554,1.237-1.238,1.237H72.636c-0.682,0-1.236-0.555-1.236-1.237  V38.349c0-0.682,0.555-1.237,1.236-1.237h2.904c0.684,0,1.566,0.445,1.974,0.995l6.87,9.262c0.405,0.55,0.735,1.406,0.735,1.912  V50.196z"/><circle cx="79.087" cy="72.911" r="7.046"/><circle cx="22.928" cy="72.911" r="7.046"/><text x="0" y="115" fill="#000000" font-size="5px" font-weight="bold" font-family="'Helvetica Neue', Helvetica, Arial-Unicode, Arial, Sans-serif">Created by David Khai</text><text x="0" y="120" fill="#000000" font-size="5px" font-weight="bold" font-family="'Helvetica Neue', Helvetica, Arial-Unicode, Arial, Sans-serif">from the Noun Project</text></svg>